<?xml version="1.0" encoding="utf-8"?>
<!-- Generator: Adobe Illustrator 22.0.1, SVG Export Plug-In . SVG Version: 6.00 Build 0)  -->
<svg version="1.1" id="Capa_1" xmlns="http://www.w3.org/2000/svg" xmlns:xlink="http://www.w3.org/1999/xlink" x="0px" y="0px"
	 viewBox="0 0 512 512" style="enable-background:new 0 0 512 512;" xml:space="preserve">
<style type="text/css">
	.st0{fill:#FFFFFF;}
</style>
<g>
	<g>
		<g>
			<g>
				<path class="st0" d="M396.6,265.3c-11.8,0-23-5.2-30.7-14.3c-7.1-8.4-10.5-19-9.7-29.8h-63.7c-5.5,0-10-4.5-10-10v-67.4
					c0-3,1.3-5.8,3.6-7.7c2.3-1.9,5.3-2.7,8.2-2.2l0.6,0.1c6,1.1,12.2-0.5,16.9-4.4c4.7-3.9,7.4-9.7,7.4-15.8
					c0-6.1-2.7-11.9-7.4-15.8c-4.7-3.9-10.8-5.5-16.9-4.4l-0.6,0.1c-2.9,0.5-5.9-0.3-8.2-2.2s-3.6-4.7-3.6-7.7V10
					c0-5.5,4.5-10,10-10h165.9c25,0,45.3,20.3,45.3,45.3v165.9c0,5.5-4.5,10-10,10H437c0.9,10.5-2.3,21.1-9.1,29.3
					c-7.6,9.2-18.8,14.6-30.7,14.8C397,265.3,396.8,265.3,396.6,265.3L396.6,265.3z M302.5,201.2H368c3,0,5.8,1.3,7.7,3.6
					c1.9,2.3,2.7,5.3,2.2,8.2l-1.4,7.4c-1.2,6.3,0.6,12.7,4.7,17.6c4,4.8,9.6,7.3,15.7,7.2c6-0.1,11.7-2.8,15.6-7.5
					c3.8-4.7,5.4-10.8,4.3-16.7l-1.5-8.1c-0.5-2.9,0.3-5.9,2.2-8.2s4.7-3.6,7.7-3.6h58.6V45.3c0-14-11.4-25.3-25.3-25.3H302.5v53.5
					c8,0.8,15.7,3.9,22.1,9.2c9.3,7.7,14.6,19.1,14.6,31.1c0,12.1-5.3,23.4-14.6,31.1c-6.3,5.3-14,8.5-22.1,9.2V201.2z"/>
			</g>
		</g>
	</g>
	<g>
		<g>
			<path class="st0" d="M420.7,347c5.5,0,10-4.5,10-10v-36.2c0-5.5-4.5-10-10-10H352c-3,0-5.8,1.3-7.7,3.6s-2.7,5.3-2.2,8.2l1.5,8.1
				c1.1,6-0.5,12.1-4.3,16.7c-3.8,4.7-9.5,7.4-15.6,7.5c-6.1,0.1-11.7-2.5-15.7-7.2c-4.2-4.9-5.9-11.3-4.7-17.6l1.4-7.5
				c0.5-2.9-0.3-5.9-2.2-8.2c-1.9-2.3-4.7-3.6-7.7-3.6h-65.4v-47c8-0.8,15.7-3.9,22.1-9.2c9.3-7.7,14.6-19.1,14.6-31.1
				s-5.3-23.4-14.6-31.1c-6.3-5.3-14-8.5-22.1-9.2V99.6c0-5.5-4.5-10-10-10H53.6c-25,0-45.3,20.3-45.3,45.3v331.8
				c0,25,20.3,45.3,45.3,45.3h331.8c25,0,45.3-20.3,45.3-45.3v-29c0-5.5-4.5-10-10-10c-5.5,0-10,4.5-10,10v29
				c0,14-11.4,25.3-25.3,25.3H229.5v-64.5c0-3-1.3-5.8-3.6-7.7s-5.3-2.7-8.2-2.2l-0.6,0.1c-6,1.1-12.2-0.5-16.9-4.4
				c-4.7-3.9-7.4-9.7-7.4-15.8c0-6.1,2.7-11.9,7.4-15.8c4.7-3.9,10.8-5.5,16.9-4.4l0.6,0.1c2.9,0.5,5.9-0.3,8.2-2.2
				c2.3-1.9,3.6-4.7,3.6-7.7v-56.8h53.7c-0.8,10.8,2.6,21.4,9.7,29.8c7.8,9.3,19.3,14.5,31.3,14.3c11.9-0.2,23.1-5.6,30.7-14.8
				c6.8-8.3,10-18.8,9.1-29.3h46.8V337C410.7,342.5,415.1,347,420.7,347L420.7,347z M28.3,134.9c0-14,11.4-25.3,25.3-25.3h155.9
				v63.9c0,3,1.3,5.8,3.6,7.7c2.3,1.9,5.3,2.7,8.2,2.2l0.6-0.1c0,0,0,0,0,0c6-1.1,12.2,0.5,16.9,4.4c4.7,3.9,7.4,9.7,7.4,15.8
				s-2.7,11.9-7.4,15.8s-10.8,5.5-16.9,4.4l-0.6-0.1c-2.9-0.5-5.9,0.3-8.2,2.2s-3.6,4.7-3.6,7.7v57.4h-42.9
				c-4.9-16.9-20.5-29.2-39-29.2s-34.1,12.2-39,29.2H28.2L28.3,134.9z M187.4,366.4c-9.3,7.7-14.6,19.1-14.6,31.2
				c0,12.1,5.3,23.4,14.6,31.1c6.3,5.3,14,8.5,22.1,9.2V492H53.6c-14,0-25.3-11.4-25.3-25.3V310.8h68.8c5.4,0,9.8-4.2,10-9.6
				c0.5-11,9.5-19.6,20.5-19.6c11,0,20.1,8.6,20.5,19.6c0.2,5.3,4.6,9.6,10,9.6h51.3v46.4C201.4,358,193.7,361.1,187.4,366.4
				L187.4,366.4z"/>
		</g>
		<g>
			<g>
				<g>
					<path class="st0" d="M420.7,396.8c-4.2,0-8-2.7-9.4-6.6c-1.4-3.9-0.2-8.3,2.9-11c3.3-2.8,8.1-3.1,11.7-0.9
						c3.5,2.2,5.3,6.4,4.5,10.4C429.5,393.4,425.4,396.8,420.7,396.8L420.7,396.8z"/>
				</g>
			</g>
		</g>
	</g>
</g>
</svg>
