<?xml version="1.0" encoding="utf-8"?>
<!-- Generator: Adobe Illustrator 22.0.1, SVG Export Plug-In . SVG Version: 6.00 Build 0)  -->
<svg version="1.1" id="Capa_1" xmlns="http://www.w3.org/2000/svg" xmlns:xlink="http://www.w3.org/1999/xlink" x="0px" y="0px"
	 viewBox="0 0 529.9 529.9" style="enable-background:new 0 0 529.9 529.9;" xml:space="preserve">
<style type="text/css">
	.st0{fill:#FFFFFF;}
</style>
<g>
	<path class="st0" d="M405.4,165.6V58.8H160.6v111.4l-8.3-14.3L0,419.9h261c29.3,32.6,71,51.3,114.7,51.3
		c85.1,0,154.2-69.2,154.2-154.2C530,243,477.7,179.8,405.4,165.6z M152.4,192.6l8.3,14.3v96.6h55.8l5.2,9l0,0.9
		c-0.1,1.1-0.1,2.3-0.1,3.5c0,30.3,8.7,59.4,25.3,84.6h-215L152.4,192.6z M387,77.1v208H179v-208H387z M375.7,452.8
		c-74.9,0-135.9-61-135.9-135.9c0-1.8,0.1-3.7,0.2-5.5l0-0.6l1-1.3l-0.9-1.5c0.1-1.5,0.2-3,0.4-4.5h164.8V184.4
		c61.7,13.8,106.2,69,106.2,132.5C511.6,391.9,450.6,452.8,375.7,452.8z"/>
</g>
</svg>
