<svg height="512pt" viewBox="0 -36 512.001 512" width="512pt" xmlns="http://www.w3.org/2000/svg"><g fill-rule="evenodd"><path d="m117.4375 90 138.5625 80 138.5625-80-138.5625-80zm0 0" fill="#ff6977"/><path d="m256 170-138.5625-80v160l138.5625 80zm0 0" fill="#cbe557"/><path d="m394.5625 90-138.5625 80v160l138.5625-80zm0 0" fill="#00ccf1"/></g><path d="m373.214844 386.453125c-20.492188 5.667969-42.496094 9.800781-65.398438 12.285156-5.488281.59375-9.457031 5.527344-8.863281 11.019531.554687 5.125 4.890625 8.921876 9.929687 8.921876.359376 0 .722657-.019532 1.089844-.058594 23.972656-2.597656 47.042969-6.9375 68.574219-12.894532 5.324219-1.46875 8.445313-6.980468 6.972656-12.300781-1.472656-5.324219-6.980469-8.445312-12.304687-6.972656zm0 0"/><path d="m479.359375 224.691406c-18.308594-16.773437-44.066406-31.402344-74.796875-42.546875v-92.144531c0-3.570312-1.902344-6.875-5-8.660156l-138.5625-80c-3.09375-1.785156-6.90625-1.785156-10 0l-20.292969 11.71875c-4.785156 2.757812-6.421875 8.875-3.660156 13.65625 2.761719 4.785156 8.875 6.421875 13.660156 3.660156l15.292969-8.828125 118.5625 68.453125-118.5625 68.453125-118.566406-68.453125 33.988281-19.625c4.785156-2.761719 6.421875-8.875 3.660156-13.660156-2.761719-4.78125-8.875-6.421875-13.660156-3.65625l-48.984375 28.28125c-3.097656 1.785156-5 5.089844-5 8.660156v92.144531c-30.730469 11.144531-56.488281 25.773438-74.796875 42.546875-21.355469 19.5625-32.640625 42.078125-32.640625 65.109375 0 36.511719 27.566406 70.253907 77.617188 95.015625 42.175781 20.867188 96.445312 33.457032 154.789062 36.136719l-1.980469 1.976563c-3.902343 3.90625-3.902343 10.238281 0 14.144531 1.953125 1.949219 4.515625 2.925781 7.074219 2.925781s5.117188-.976562 7.070312-2.925781l18.5-18.503907c3.84375-3.847656 3.847657-10.292968 0-14.140624l-18.5-18.503907c-3.90625-3.902343-10.238281-3.902343-14.144531 0-3.902343 3.90625-3.902343 10.238281 0 14.144531l.8125.808594c-54.804687-2.742187-105.496093-14.566406-144.753906-33.988281-42.871094-21.210937-66.484375-48.585937-66.484375-77.089844 0-33.171875 32.414062-64.878906 87.4375-86.289062v46.488281c0 3.574219 1.90625 6.875 5 8.660156l138.5625 80c1.546875.894532 3.273438 1.339844 5 1.339844s3.453125-.445312 5-1.339844l138.5625-80c3.097656-1.785156 5-5.085937 5-8.660156v-46.488281c55.023438 21.410156 87.4375 53.117187 87.4375 86.289062 0 30.222657-25.976562 52.929688-47.769531 66.652344-4.675781 2.941406-6.078125 9.117187-3.132813 13.789063 1.898438 3.019531 5.148438 4.675781 8.46875 4.675781 1.820313 0 3.664063-.5 5.320313-1.539063 37.363281-23.53125 57.113281-52.433594 57.113281-83.578125 0-23.03125-11.285156-45.546875-32.640625-65.109375zm-351.921875-117.367187 118.5625 68.453125v136.902344l-118.5625-68.453126zm138.5625 205.355469v-136.90625l118.5625-68.453126v136.90625zm0 0"/><path d="m201.070312 51.71875c1.789063 0 3.597657-.476562 5.230469-1.480469l.007813-.003906c4.703125-2.898437 6.167968-9.054687 3.273437-13.757813-2.894531-4.703124-9.058593-6.167968-13.761719-3.273437-4.703124 2.894531-6.167968 9.054687-3.277343 13.757813 1.894531 3.070312 5.171875 4.757812 8.527343 4.757812zm0 0"/><path d="m409.886719 373.964844c-5.078125 2.175781-7.429688 8.054687-5.253907 13.132812 1.625 3.792969 5.316407 6.0625 9.195313 6.0625 1.316406 0 2.652344-.261718 3.933594-.8125l.007812-.003906c5.078125-2.175781 7.425781-8.050781 5.25-13.128906-2.175781-5.074219-8.0625-7.425782-13.132812-5.25zm0 0"/></svg>