<svg id="Capa_1" enable-background="new 0 0 512 512" height="512" viewBox="0 0 512 512" width="512" xmlns="http://www.w3.org/2000/svg"><g><path d="m256 512c-8.284 0-15-6.716-15-15s6.716-15 15-15c124.617 0 226-101.383 226-226s-101.383-226-226-226-226 101.383-226 226c0 60.367 23.508 117.121 66.194 159.806 5.858 5.858-3.086 3.086-8.944 8.944s-12.269 12.27-12.269 12.27c-48.352-48.352-74.981-112.64-74.981-181.02s26.629-132.668 74.98-181.02c48.352-48.351 112.64-74.98 181.02-74.98s132.668 26.629 181.02 74.98c48.351 48.352 74.98 112.64 74.98 181.02s-26.629 132.668-74.98 181.02c-48.352 48.351-112.64 74.98-181.02 74.98z" fill="#4e6ba6"/><path d="m217.393 394.58-99.986-99.986c-3.958-3.958-9.791-5.382-15.126-3.696-5.336 1.687-9.291 6.204-10.255 11.717l-21.214 121.212c-.843 4.814.713 9.737 4.169 13.193 2.837 2.837 6.663 4.393 10.605 4.393.86 0 1.726-.074 2.588-.225l121.199-21.227c5.513-.965 10.029-4.919 11.715-10.256 1.688-5.337.263-11.168-3.695-15.125z" fill="#ffe470"/><path d="m217.393 394.58-49.986-49.986-92.427 92.426h.001c2.837 2.837 6.663 4.393 10.605 4.393.86 0 1.726-.074 2.588-.225l121.199-21.227c5.513-.965 10.029-4.919 11.715-10.256 1.688-5.337.263-11.168-3.695-15.125z" fill="#fabe2c"/><path d="m362.325 149.675-50-50c-5.857-5.858-15.355-5.858-21.213 0l-194.918 194.919 71.213 71.212 194.919-194.919c2.814-2.813 4.394-6.628 4.394-10.606-.001-3.978-1.582-7.793-4.395-10.606z" fill="#00dd80"/><path d="m412.311 199.661-49.985-49.986-205.526 205.525 60.593 60.593 194.918-194.919c5.858-5.858 5.858-15.355 0-21.213z" fill="#00aa95"/></g></svg>