<?xml version="1.0" encoding="utf-8"?>
<!-- Generator: Adobe Illustrator 22.0.1, SVG Export Plug-In . SVG Version: 6.00 Build 0)  -->
<svg version="1.1" id="Capa_1" xmlns="http://www.w3.org/2000/svg" xmlns:xlink="http://www.w3.org/1999/xlink" x="0px" y="0px"
	 viewBox="0 0 512 512" style="enable-background:new 0 0 512 512;" xml:space="preserve">
<style type="text/css">
	.st0{fill:#FFFFFF;}
</style>
<path class="st0" d="M494.9,512H17.1c-3.3,0-6.4-1.9-7.8-5c-1.4-3-0.9-6.6,1.3-9.1L219.1,256L10.6,14.1C8.4,11.6,7.9,8,9.3,5
	s4.4-5,7.8-5h477.9c4.7,0,8.5,3.8,8.5,8.5v128c0,4.7-3.8,8.5-8.5,8.5h-59.7c-4.7,0-8.5-3.8-8.5-8.5V76.8h-238l142.2,173.8
	c2.6,3.1,2.6,7.7,0,10.8L188.7,435.2h238v-59.7c0-4.7,3.8-8.5,8.5-8.5h59.7c4.7,0,8.5,3.8,8.5,8.5v128
	C503.5,508.2,499.7,512,494.9,512L494.9,512z"/>
</svg>
